<?xml version="1.0" standalone="no"?> <!DOCTYPE svg PUBLIC "-//W3C//DTD SVG 1.0//EN" "http://www.w3.org/TR/2001/REC-SVG-20010904/DTD/svg10.dtd" > <svg xmlns="http://www.w3.org/2000/svg" width="100%" height="100%">
<defs >
<font id="arrrowsboldwebfont" horiz-adv-x="734" ><font-face
    font-family="Arrrows Bold"
    units-per-em="1000"
    panose-1="0 0 8 0 0 0 0 0 0 0"
    ascent="1000"
    descent="-200"
    alphabetic="0" />
<missing-glyph horiz-adv-x="1000" />
<glyph unicode=" " glyph-name="space" horiz-adv-x="600" />
<glyph unicode="!" glyph-name="exclam" horiz-adv-x="800" d="M75 325Q75 460 170 555T400 650T630 555T725 325Q725 191 630 96T400 0T170 95T75 325ZM181 325L379 166V265Q385 266 395 266T434 265T492 256T555 229T619 179Q619 183 618 190T612 220T597 261T570
305T527 346T465 375T379 387V484L181 325Z" />
<glyph unicode="&quot;" glyph-name="quotedbl" horiz-adv-x="800" d="M75 325Q75 460 170 555T400 650T630 555T725 325Q725 191 630 96T400 0T170 95T75 325ZM235 212Q235 190 250 175T286 160H514Q535 160 550 175T565 212V439Q565 460 550 475T514 490H286Q265
490 250 475T235 439V212ZM308 279L400 371L492 279H308Z" />
<glyph unicode="#" glyph-name="numbersign" horiz-adv-x="800" d="M75 325Q75 460 170 555T400 650T630 555T725 325Q725 191 630 96T400 0T170 95T75 325ZM139 239L262 168L312 302L262 284Q245 339 271 390T352 461Q411 483 468 453L509 518Q420 567 326 533Q242
503 203 423T190 258L139 239ZM291 133Q379 82 474 117Q558 147 597 227T610 392L661 411L538 482L488 348L538 367Q555 311 529 260T448 189Q389 167 332 197L291 133Z" />
<glyph unicode="$" glyph-name="dollar" horiz-adv-x="800" d="M75 325Q75 460 170 555T400 650T630 555T725 325Q725 191 630 96T400 0T170 95T75 325ZM200 173L249 124L323 198L375 146V300H221L274 247L200 173ZM425 350H579L526 404L600 478L551 526L477 452L425
504V350Z" />
<glyph unicode="%" glyph-name="percent" horiz-adv-x="800" d="M75 325Q75 460 170 555T400 650T630 555T725 325Q725 191 630 96T400 0T170 95T75 325ZM179 290L244 225L182 164L240 105L302 167L365 104V290H179ZM179 360H365V546L300 482L238 543L180 485L242
423L179 360ZM435 104L500 169L562 107L620 166L558 227L621 290H435V104ZM435 360H621L556 425L618 487L560 545L498 483L435 546V360Z" />
<glyph unicode="&amp;" glyph-name="ampersand" horiz-adv-x="800" d="M75 325Q75 460 170 555T400 650T630 555T725 325Q725 191 630 96T400 0T170 95T75 325ZM140 325L206 242H642L576 325L642 408H206L140 325Z" />
<glyph unicode="&apos;" glyph-name="quotesingle" horiz-adv-x="800" d="M75 325Q75 460 170 555T400 650T630 555T725 325Q725 191 630 96T400 0T170 95T75 325ZM235 212Q235 190 250 175T286 160H514Q535 160 550 175T565 212V439Q565 460 550 475T514 490H286Q265
490 250 475T235 439V212ZM308 371H492L400 279L308 371Z" />
<glyph unicode="(" glyph-name="parenleft" horiz-adv-x="800" d="M75 325Q75 460 170 555T400 650T630 555T725 325Q725 191 630 96T400 0T170 95T75 325ZM119 325L213 231L218 237L134 321H682V329H134L218 414L213 419L119 325Z" />
<glyph unicode=")" glyph-name="parenright" horiz-adv-x="800" d="M75 325Q75 460 170 555T400 650T630 555T725 325Q725 191 630 96T400 0T170 95T75 325ZM119 325Q119 322 184 299T267 269Q268 269 265 276T254 297T244 315H681V335H244Q246 338 248 343T253
352T258 361T262 369T265 375T267 380V381Q266 381 249 375T211 362T169 346T134 332T119 325Z" />
<glyph unicode="*" glyph-name="asterisk" horiz-adv-x="800" d="M75 325Q75 460 170 555T400 650T630 555T725 325Q725 191 630 96T400 0T170 95T75 325ZM151 325Q159 314 171 298T211 254T254 226H583Q595 226 603 234T611 255V395Q611 407 603 415T583 424H254Q239
424 213 399T169 350L151 325Z" />
<glyph unicode="+" glyph-name="plus" horiz-adv-x="800" d="M75 325Q75 460 170 555T400 650T630 555T725 325Q725 191 630 96T400 0T170 95T75 325ZM120 325L172 273L181 282L146 318H541L586 273L595 282L560 318H584L628 273L638 282L603 318H626L671 273L680
282L638 325L680 368L671 377L626 333H603L638 368L628 377L584 333H560L595 368L586 377L541 333H146L181 368L172 377L120 325Z" />
<glyph unicode="," glyph-name="comma" horiz-adv-x="800" d="M75 325Q75 460 170 555T400 650T630 555T725 325Q725 191 630 96T400 0T170 95T75 325ZM182 216L298 107V186H618V245H298V325L182 216ZM182 405H502V325L618 434L502 544V464H182V405Z" />
<glyph unicode="-" glyph-name="hyphen" horiz-adv-x="800" d="M75 325Q75 460 170 555T400 650Q534 650 629 555T725 325Q725 191 630 96T400 0Q265 0 170 95T75 325ZM124 274H236L267 312H569L543 264L676 325L543 387L569 338H267L236 376H124L165 325L124 274Z" />
<glyph unicode="." glyph-name="period" horiz-adv-x="800" d="M75 325Q75 460 170 555T400 650Q534 650 629 555T725 325Q725 191 630 96T400 0Q265 0 170 95T75 325ZM228 160L513 325V160H572V490H513V325L228 490V160Z" />
<glyph unicode="/" glyph-name="slash" horiz-adv-x="800" d="M75 325Q75 460 170 555T400 650Q534 650 629 555T725 325Q725 191 630 96T400 0Q265 0 170 95T75 325ZM192 228H225V418H192V228ZM254 228H315V418H254V228ZM345 228H456V116L631 325L456 535V417H345V228Z" />
<glyph unicode="0" glyph-name="zero" horiz-adv-x="800" d="M75 325Q75 460 170 555T400 650T630 555T725 325Q725 191 630 96T400 0T170 95T75 325ZM119 315H556Q553 310 546 297T536 277T533 269Q551 275 616 298T681 325Q681 326 667 332T631 346T589 361T551
375T533 381V380Q533 379 534 376T537 369T542 361T547 352T551 343T556 335H119V315Z" />
<glyph unicode="1" glyph-name="one" horiz-adv-x="800" d="M75 325Q75 460 170 555T400 650T630 555T725 325Q725 191 630 96T400 0T170 95T75 325ZM181 179Q209 208 244 228T309 255T365 265T406 266L421 265V166L619 325L421 484V387Q374 387 336 376T273 346T231
306T203 261T189 221T182 190L181 179Z" />
<glyph unicode="2" glyph-name="two" horiz-adv-x="800" d="M75 325Q75 460 170 555T400 650T630 555T725 325Q725 191 630 96T400 0T170 95T75 325ZM186 412T186 324T248 174T398 112Q454 112 502 140T579 214L519 250Q500 219 468 200T398 181Q339 181 297 223T255
324T297 425T398 467Q455 467 498 424L433 359H609V536L547 473Q484 536 398 536Q310 536 248 474Z" />
<glyph unicode="3" glyph-name="three" horiz-adv-x="800" d="M75 325Q75 460 170 555T400 650T630 555T725 325T630 95T400 0T170 95T75 325ZM139 411L190 392Q163 308 202 228T326 117Q421 82 509 133L468 197Q411 167 352 189Q297 208 271 259T262 367L312
348L262 482L139 411ZM291 518L332 453Q389 483 448 461Q503 442 529 391T538 284L488 302L538 168L662 239L610 258Q637 343 598 423T474 533Q380 567 291 518Z" />
<glyph unicode="4" glyph-name="four" horiz-adv-x="800" d="M75 325Q75 460 170 555T400 650T630 555T725 325Q725 191 630 96T400 0T170 95T75 325ZM211 134H377L319 192L399 272L347 324L267 244L211 300V134ZM401 379L453 326L533 406L589 350V516H423L481
459L401 379Z" />
<glyph unicode="5" glyph-name="five" horiz-adv-x="800" d="M75 325Q75 460 170 555T400 650T630 555T725 325Q725 191 630 96T400 0T170 95T75 325ZM201 127H368L310 185L366 240L313 293L258 237L201 293V127ZM201 357L259 415L315 359L367 412L312 468L368
524H201V357ZM432 127H599V293L541 235L485 291L433 238L488 183L432 127ZM432 524L490 466L434 410L487 358L542 413L599 357V524H432Z" />
<glyph unicode="6" glyph-name="six" horiz-adv-x="800" d="M75 325Q75 460 170 555T400 650T630 555T725 325Q725 191 630 96T400 0T170 95T75 325ZM129 325L243 211V290H318V362H243V439L129 325ZM286 168L400 54L514 168H435V244H363V168H286ZM286 482H365V407H437V482H514L400
596L286 482ZM482 288H557V211L671 325L557 439V360H482V288Z" />
<glyph unicode="7" glyph-name="seven" horiz-adv-x="800" d="M75 325Q75 460 170 555T400 650Q535 650 630 555T725 325Q725 191 630 96T400 0Q266 0 171 95T75 325ZM158 242H594L660 325L594 408H158L225 325L158 242Z" />
<glyph unicode="8" glyph-name="eight" horiz-adv-x="800" d="M74 325Q74 460 169 555T400 650Q534 650 629 555T725 325Q725 191 630 96T400 0Q265 0 170 95T74 325ZM188 255Q188 243 196 235T217 226H546Q561 226 586 251T630 300L648 325Q640 336 628 352T589
396T546 424H217Q205 424 197 416T188 395V255Z" />
<glyph unicode="9" glyph-name="nine" horiz-adv-x="800" d="M75 325Q75 460 170 555T400 650T630 555T725 325Q725 191 630 96T400 0T170 95T75 325ZM118 321H666L582 237L587 231L681 325L587 419L582 414L666 329H118V321Z" />
<glyph unicode=":" glyph-name="colon" horiz-adv-x="800" d="M75 325Q75 460 170 555T400 650T630 555T725 325Q725 191 630 96T400 0T170 95T75 325ZM166 403L272 297V362H480H483Q512 362 532 342T552 293T532 244T483 223H480H271V141H480H483Q545 141 589
185T634 293Q634 355 590 399T483 444H480H272V509L166 403Z" />
<glyph unicode=";" glyph-name="semicolon" horiz-adv-x="800" d="M75 325Q75 460 170 555T400 650T630 555T725 325Q725 191 630 96T400 0T170 95T75 325ZM183 189Q245 189 289 212T375 278Q391 296 399 304Q406 312 420 326Q474 383 529 394V351L617 426L529
502V461Q446 449 375 374L350 349Q347 345 340 338T329 326Q295 291 263 273T183 255V189ZM183 398Q253 398 312 344Q318 351 332 365Q348 383 357 392Q279 464 183 464V398ZM392 261Q457 202 529 192V149L617 224L529 299V258Q482 268 438 309Q435 305 429 298T418
288Q410 279 392 261Z" />
<glyph unicode="&lt;" glyph-name="less" horiz-adv-x="800" d="M75 325Q75 460 170 555T400 650T630 555T725 325Q725 191 630 96T400 0T170 95T75 325ZM181 427H261V107H320V427H400L291 543L181 427ZM400 223L509 107L619 223H539V543H480V223H400Z" />
<glyph unicode="=" glyph-name="equal" horiz-adv-x="800" d="M75 325Q75 460 170 555T400 650T630 555T725 325Q725 191 630 96T400 0T170 95T75 325ZM120 282L129 273L174 318H197L162 282L172 273L216 318H240L205 282L214 273L259 318H654L619 282L628 273L680
325L628 377L619 368L654 333H259L214 377L205 368L240 333H216L172 377L162 368L197 333H174L129 377L120 368L162 325L120 282Z" />
<glyph unicode="&gt;" glyph-name="greater" horiz-adv-x="800" d="M75 325Q75 460 170 555T400 650T630 555T725 325Q725 191 630 96T400 0T170 95T75 325ZM228 160H287V325L572 160V490L287 325V490H228V160Z" />
<glyph unicode="?" glyph-name="question" horiz-adv-x="800" d="M75 325Q75 460 170 555T400 650T630 555T725 325Q725 191 630 96T400 0T170 95T75 325ZM168 325L344 116V228H455V417H344V535L168 325ZM484 229H546V418H484V229ZM575 229H607V418H575V229Z" />
<glyph unicode="@" glyph-name="at" horiz-adv-x="800" d="M75 325Q75 460 170 555T400 650T630 555T725 325Q725 191 630 96T400 0T170 95T75 325ZM191 359H367L302 424Q345 467 402 467Q461 467 503 425T545 324T503 223T402 181Q364 181 332 200T281 250L221
214Q249 168 297 140T402 112Q490 112 552 174T614 324T552 474T402 536Q316 536 253 473L191 536V359Z" />
<glyph unicode="A" glyph-name="A" horiz-adv-x="800" d="M75 325Q75 459 170 554T400 650Q535 650 630 555T726 325Q726 190 631 95T400 0Q266 0 171 95T75 325ZM212 325L423 157V264H589V385H423V493L212 325Z" />
<glyph unicode="B" glyph-name="B" horiz-adv-x="800" d="M75 326Q75 460 170 555T400 651Q535 651 630 556T725 326Q725 191 630 96T400 1Q266 1 171 96T75 326ZM232 303H340V137H461V303H568L400 514L232 303Z" />
<glyph unicode="C" glyph-name="C" horiz-adv-x="800" d="M75 325Q75 460 170 555T400 650T630 555T725 325Q725 191 630 96T400 0T170 95T75 325ZM241 262H343V105H457V262H559L400 462L241 262ZM286 494H513V545H286V494Z" />
<glyph unicode="D" glyph-name="D" horiz-adv-x="800" d="M75 325Q75 460 170 555T400 650Q535 650 630 555T726 325Q726 191 631 96T400 0Q266 0 171 95T75 325ZM196 325L389 155V239H585V411H389V495L196 325Z" />
<glyph unicode="E" glyph-name="E" horiz-adv-x="800" d="M75 325Q75 460 170 555T401 650Q535 650 630 555T726 325Q726 191 631 96T401 0Q266 0 171 95T75 325ZM173 325L392 150V279H628V371H392V500L173 325Z" />
<glyph unicode="F" glyph-name="F" horiz-adv-x="800" d="M75 325Q75 460 170 555T400 650Q534 650 629 555T725 325Q725 191 630 96T400 0Q265 0 170 95T75 325ZM205 325L400 130L451 181L342 289H595V361H342L451 470L400 520L205 325Z" />
<glyph unicode="G" glyph-name="G" horiz-adv-x="800" d="M75 325Q75 460 170 555T400 650T630 555T725 325Q725 191 630 96T400 0T170 95T75 325ZM205 325L256 274L364 383V130H436V383L544 274L595 325L400 520L205 325Z" />
<glyph unicode="H" glyph-name="H" horiz-adv-x="800" d="M75 325Q75 460 170 555T400 650Q534 650 629 555T725 325Q725 191 630 96T400 0Q265 0 170 95T75 325ZM179 325L398 106L411 118L215 315H610V335H215L411 532L398 545L179 325Z" />
<glyph unicode="I" glyph-name="I" horiz-adv-x="800" d="M75 325Q75 460 170 555T401 650Q535 650 630 555T726 325Q726 191 631 96T401 0Q266 0 171 95T75 325ZM212 325Q210 311 222 299L385 136Q395 126 409 126T434 136T444 160T434 185L328 291H576Q591 291
601 301T611 325T601 349T576 360H328L434 465Q444 476 444 490T434 514T410 524T385 514L222 351Q211 340 212 325Z" />
<glyph unicode="J" glyph-name="J" horiz-adv-x="800" d="M75 325Q75 460 170 555T400 650Q535 650 630 555T725 325Q725 191 630 96T400 0Q266 0 171 95T75 325ZM183 341T183 325T197 298L391 145Q401 137 408 137Q412 137 415 139Q425 144 425 162V242H587Q600
242 609 250T618 272V378Q618 391 609 400T587 409H425V489Q425 507 415 512Q412 513 409 513Q401 513 391 505L197 352Q183 341 183 325Z" />
<glyph unicode="K" glyph-name="K" horiz-adv-x="800" d="M75 325Q75 460 170 555T400 650T630 555T725 325Q725 191 630 96T400 0T170 95T75 325ZM163 325L481 177L423 288H610V362H423L481 473L163 325Z" />
<glyph unicode="L" glyph-name="L" horiz-adv-x="800" d="M75 325Q75 460 170 555T401 650Q535 650 630 555T726 325Q726 191 631 96T401 0Q266 0 171 95T75 325ZM171 325L386 135V242H630L547 325L630 408H386V515L171 325Z" />
<glyph unicode="M" glyph-name="M" horiz-adv-x="800" d="M75 325Q75 460 170 555T400 650T630 555T725 325Q725 191 630 96T400 0T170 95T75 325ZM159 325L267 223V298H641V352H267V427L159 325Z" />
<glyph unicode="N" glyph-name="N" horiz-adv-x="800" d="M75 325Q75 460 170 555T400 650T630 555T725 325Q725 191 630 96T400 0T170 95T75 325ZM249 325L466 109L511 154L340 325L511 497L466 542L249 325Z" />
<glyph unicode="O" glyph-name="O" horiz-adv-x="800" d="M75 325Q75 460 170 555T401 650Q535 650 630 555T726 325Q726 191 631 96T401 0Q266 0 171 95T75 325ZM184 259L229 214L401 385L572 214L617 259L401 476L184 259Z" />
<glyph unicode="P" glyph-name="P" horiz-adv-x="800" d="M75 325Q75 460 170 555T400 650Q534 650 629 555T725 325Q725 191 630 96T400 0Q265 0 170 95T75 325ZM234 325L427 132H537L343 325L537 518H427L234 325Z" />
<glyph unicode="Q" glyph-name="Q" horiz-adv-x="800" d="M75 325Q75 460 170 555T401 650Q535 650 630 555T726 325Q726 191 631 96T401 0Q266 0 171 95T75 325ZM234 325L467 91V183L325 325L467 467V559L234 325Z" />
<glyph unicode="R" glyph-name="R" horiz-adv-x="800" d="M75 325Q75 460 170 555T400 650T630 555T725 325Q725 191 630 96T400 0T170 95T75 325ZM275 325L488 111L501 124L300 325L501 526L488 539L275 325Z" />
<glyph unicode="S" glyph-name="S" horiz-adv-x="800" d="M75 325Q75 460 170 555T400 650T630 555T725 325Q725 191 630 96T400 0T170 95T75 325ZM242 347T242 326T258 288L409 137Q424 121 446 121T483 137Q498 152 498 173T483 211L369 325L483 439Q498 455
498 476T483 513Q468 529 446 529T409 513L258 362Q242 347 242 326Z" />
<glyph unicode="T" glyph-name="T" horiz-adv-x="800" d="M75 325Q75 460 170 555T400 650T630 555T725 325Q725 191 630 96T400 0T170 95T75 325ZM264 342T264 326T274 299Q275 299 275 298H276L455 118Q466 108 482 108T509 118Q520 129 520 145T509 172L355
326L508 478Q519 489 519 505T508 532T481 543T454 532L274 353Q264 342 264 326Z" />
<glyph unicode="U" glyph-name="U" horiz-adv-x="800" d="M75 325Q75 460 170 555T400 650T630 555T725 325Q725 191 630 96T400 0T170 95T75 325ZM182 259T182 243T193 216Q204 206 220 206T247 216L401 370L553 218Q564 207 580 207T607 218Q618 228 618 244T607
271L427 451Q416 462 401 462T374 451L373 450L193 270Q182 259 182 243Z" />
<glyph unicode="V" glyph-name="V" horiz-adv-x="800" d="M75 325Q75 460 170 555T400 650T630 555T725 325Q725 191 630 96T400 0T170 95T75 325ZM247 325L445 127L515 197L386 325L515 454L445 523L247 325Z" />
<glyph unicode="W" glyph-name="W" horiz-adv-x="800" d="M75 325Q75 460 170 555T400 650T630 555T725 325Q725 191 630 96T400 0T170 95T75 325ZM241 325L497 177V473L241 325Z" />
<glyph unicode="X" glyph-name="X" horiz-adv-x="800" d="M75 325Q75 460 170 555T400 650T630 555T725 325Q725 191 630 96T400 0T170 95T75 325ZM252 228H548L400 484L252 228Z" />
<glyph unicode="Y" glyph-name="Y" horiz-adv-x="800" d="M75 325Q75 460 170 555T400 650T630 555T725 325Q725 191 630 96T400 0T170 95T75 325ZM269 325L460 134V516L269 325Z" />
<glyph unicode="Z" glyph-name="Z" horiz-adv-x="800" d="M75 325Q75 460 170 555T400 650T630 555T725 325Q725 191 630 96T400 0T170 95T75 325ZM209 266H591L400 456L209 266Z" />
<glyph unicode="[" glyph-name="bracketleft" horiz-adv-x="800" d="M75 325Q75 460 170 555T400 650T630 555T725 325Q725 191 630 96T400 0T170 95T75 325ZM132 313Q139 296 157 303Q162 306 183 313T252 329T352 340T472 329T600 284L500 258Q492 256 488 249T486
234Q492 215 510 220L655 258Q659 258 663 262Q668 265 669 271Q669 272 669 272T670 273Q670 281 668 284L608 421Q608 422 607 423T605 426Q595 438 582 431Q575 428 572 420T572 405L608 323Q545 355 474 368T350 380T245 367T173 350T142 339Q123 331 132 313Z"
/>
<glyph unicode="\" glyph-name="backslash" horiz-adv-x="800" d="M75 325Q75 460 170 555T400 650T630 555T725 325Q725 191 630 96T400 0T170 95T75 325ZM178 177Q178 173 240 150T318 123Q326 121 360 121T426 122L456 123Q481 123 493 136Q506 148 502 159V192Q525
201 527 222V258Q554 267 556 292V330H626Q642 330 653 339Q667 353 667 379T653 419Q642 430 626 430H457Q488 461 488 481Q488 507 474 518T445 529Q432 529 341 470T241 411Q234 411 209 411T178 410V177ZM203 198Q311 155 321 153H466Q470 153 471 162T472
181L471 190H392Q389 190 389 204T392 218H490Q496 218 497 228T497 248L495 257H423Q420 257 420 271T423 285L515 284Q523 284 525 296T526 320L525 332H423Q420 332 419 346T423 360H625Q629 360 631 362Q636 367 636 381T630 401L623 404H405Q401 404 401 418T405
432H411Q462 466 462 483Q462 497 453 502T425 496Q260 381 241 381H203V198Z" />
<glyph unicode="]" glyph-name="bracketright" horiz-adv-x="800" d="M75 325Q75 460 170 555T400 650T630 555T725 325Q725 191 630 96T400 0T170 95T75 325ZM234 161L433 325V161L633 325L433 490V325L234 490V161Z" />
<glyph unicode="^" glyph-name="asciicircum" horiz-adv-x="800" d="M75 325Q75 460 170 555T400 650T630 555T725 325Q725 191 630 96T400 0T170 95T75 325ZM148 285H230V202L353 325L230 448V363H148V285ZM277 155H362V73H440V155H523L400 278L277 155ZM277
495L400 372L523 495H438V577H360V495H277ZM447 325L570 202V287H652V365H570V448L447 325Z" />
<glyph unicode="_" glyph-name="underscore" horiz-adv-x="800" d="M75 325Q75 460 170 555T400 650T630 555T725 325Q725 191 630 96T400 0T170 95T75 325ZM124 325L257 264L231 312H533L564 274H676L635 325L676 376H564L533 338H231L257 387L124 325Z" />
<glyph unicode="`" glyph-name="grave" horiz-adv-x="800" d="M75 325Q75 460 170 555T400 650T630 555T725 325Q725 191 630 96T400 0T170 95T75 325ZM245 167L585 325L245 483L328 325L245 167Z" />
<glyph unicode="a" glyph-name="a" horiz-adv-x="800" d="M75 325Q75 460 170 555T400 650T630 555T725 325Q725 191 630 96T400 0T170 95T75 325ZM212 265H377V157L588 325L377 493V386H212V265Z" />
<glyph unicode="b" glyph-name="b" horiz-adv-x="800" d="M75 325Q75 460 170 555T400 650T630 555T725 325Q725 191 630 96T400 0T170 95T75 325ZM232 348L400 137L568 348H461V514H340V348H232Z" />
<glyph unicode="c" glyph-name="c" horiz-adv-x="800" d="M75 325Q75 460 170 555T400 650T630 555T725 325Q725 191 630 96T400 0T170 95T75 325ZM241 389L400 188L559 389H457V545H343V389H241ZM287 105H514V156H287V105Z" />
<glyph unicode="d" glyph-name="d" horiz-adv-x="800" d="M75 325Q75 460 170 555T400 650T630 555T725 325Q725 191 630 96T400 0T170 95T75 325ZM215 239H412V155L604 325L412 495V411H215V239Z" />
<glyph unicode="e" glyph-name="e" horiz-adv-x="800" d="M75 325Q75 460 170 555T400 650T630 555T725 325Q725 191 630 96T400 0T170 95T75 325ZM173 279H409V150L627 325L409 500V371H173V279Z" />
<glyph unicode="f" glyph-name="f" horiz-adv-x="800" d="M75 325Q75 460 170 555T400 650T630 555T725 325Q725 191 630 96T400 0T170 95T75 325ZM205 289H458L349 181L400 130L595 325L400 520L349 469L458 361H205V289Z" />
<glyph unicode="g" glyph-name="g" horiz-adv-x="800" d="M75 325Q75 460 170 555T400 650T630 555T725 325Q725 191 630 96T400 0T170 95T75 325ZM205 325L400 130L595 325L544 376L436 267V520H364V267L256 376L205 325Z" />
<glyph unicode="h" glyph-name="h" horiz-adv-x="800" d="M75 325Q75 460 170 555T400 650T630 555T725 325Q725 191 630 96T400 0T170 95T75 325ZM189 315H585L388 118L401 106L621 325L401 545L388 532L585 335H189V315Z" />
<glyph unicode="i" glyph-name="i" horiz-adv-x="800" d="M75 325Q75 460 170 555T400 650T630 555T725 325Q725 191 630 96T400 0T170 95T75 325ZM190 339T190 325T200 301T224 291H472L367 185Q356 175 356 161T367 136Q377 126 391 126T416 136L579 299Q589
309 589 325T579 351L416 514Q405 524 391 524T367 514Q356 504 356 490T367 465L472 360H224Q210 360 200 350Z" />
<glyph unicode="j" glyph-name="j" horiz-adv-x="800" d="M75 325Q75 460 170 555T400 650T630 555T725 325Q725 191 630 96T400 0T170 95T75 325ZM183 272Q183 259 191 251T213 242H375V162Q375 144 386 139Q389 137 392 137Q400 137 409 145L603 298Q617 309
617 325T603 352L409 505Q400 513 392 513Q389 513 386 512Q375 507 375 489V409H213Q200 409 192 400T183 378V272Z" />
<glyph unicode="k" glyph-name="k" horiz-adv-x="800" d="M75 325Q75 460 170 555T400 650T630 555T725 325Q725 191 630 96T400 0T170 95T75 325ZM190 288H377L319 177L637 325L319 473L377 362H190V288Z" />
<glyph unicode="l" glyph-name="l" horiz-adv-x="800" d="M75 325Q75 460 170 555T400 650T630 555T725 325Q725 191 630 96T400 0T170 95T75 325ZM171 242H414V135L629 325L414 515V408H171L254 325L171 242Z" />
<glyph unicode="m" glyph-name="m" horiz-adv-x="800" d="M75 325Q75 460 170 555T400 650T630 555T725 325Q725 191 630 96T400 0T170 95T75 325ZM159 298H533V223L641 325L533 427V352H159V298Z" />
<glyph unicode="n" glyph-name="n" horiz-adv-x="800" d="M75 325Q75 460 170 555T400 650T630 555T725 325Q725 191 630 96T400 0T170 95T75 325ZM289 154L334 109L551 325L334 542L289 496L460 325L289 154Z" />
<glyph unicode="o" glyph-name="o" horiz-adv-x="800" d="M75 325Q75 460 170 555T400 650T630 555T725 325Q725 191 630 96T400 0T170 95T75 325ZM183 391L400 175L616 391L571 436L400 265L229 436L183 391Z" />
<glyph unicode="p" glyph-name="p" horiz-adv-x="800" d="M75 325Q75 460 170 555T400 650T630 555T725 325Q725 191 630 96T400 0T170 95T75 325ZM263 132H373L566 325L373 518H263L456 325L263 132Z" />
<glyph unicode="q" glyph-name="q" horiz-adv-x="800" d="M75 190T75 325T170 555T400 650Q534 650 629 555T725 325T630 95T400 0Q265 0 170 95ZM333 91L567 325L333 559V467L475 325L333 183V91Z" />
<glyph unicode="r" glyph-name="r" horiz-adv-x="800" d="M75 325Q75 460 170 555T400 650T630 555T725 325Q725 191 630 96T400 0T170 95T75 325ZM299 124L311 111L525 325L311 539L299 526L500 325L299 124Z" />
<glyph unicode="s" glyph-name="s" horiz-adv-x="800" d="M75 325Q75 460 170 555T400 650T630 555T725 325Q725 191 630 96T400 0T170 95T75 325ZM302 195T302 174T317 137Q332 121 354 121T391 137L542 288Q558 304 558 325T542 362L391 513Q376 529 354 529T317
513Q302 498 302 477T317 439L431 325L317 211Q302 195 302 174Z" />
<glyph unicode="t" glyph-name="t" horiz-adv-x="800" d="M75 325Q75 460 170 555T400 650T630 555T725 325Q725 191 630 96T400 0T170 95T75 325ZM280 161T280 145T291 118T318 107T345 118L525 298Q525 299 526 299Q536 310 536 326T526 353L346 532Q335 543
319 543T292 532Q282 521 282 505T292 478L445 326L291 172Q280 161 280 145Z" />
<glyph unicode="u" glyph-name="u" horiz-adv-x="800" d="M75 325Q75 460 170 555T400 650T630 555T725 325Q725 191 630 96T400 0T170 95T75 325ZM182 422T182 406T193 379L373 200Q384 189 399 189T426 200H427V201L607 380Q618 391 618 407T607 434T580 445T553
434L399 280L247 433Q236 444 220 444T193 433Z" />
<glyph unicode="v" glyph-name="v" horiz-adv-x="800" d="M75 325Q75 460 170 555T400 650T630 555T725 325Q725 191 630 96T400 0T170 95T75 325ZM285 197L355 127L553 325L355 523L285 454L414 325L285 197Z" />
<glyph unicode="w" glyph-name="w" horiz-adv-x="800" d="M75 325Q75 460 170 555T400 650T630 555T725 325Q725 191 630 96T400 0T170 95T75 325ZM303 177L559 325L303 473V177Z" />
<glyph unicode="x" glyph-name="x" horiz-adv-x="800" d="M75 325Q75 460 170 555T400 650T630 555T725 325Q725 191 630 96T400 0T170 95T75 325ZM252 423L400 166L548 423H252Z" />
<glyph unicode="y" glyph-name="y" horiz-adv-x="800" d="M75 325Q75 460 170 555T400 650T630 555T725 325Q725 191 630 96T400 0T170 95T75 325ZM340 134L531 325L340 516V134Z" />
<glyph unicode="z" glyph-name="z" horiz-adv-x="800" d="M75 325Q75 460 170 555T400 650T630 555T725 325Q725 191 630 96T400 0T170 95T75 325ZM209 385L400 194L591 385H209Z" />
<glyph unicode="{" glyph-name="braceleft" horiz-adv-x="800" d="M75 325Q75 460 170 555T400 650T630 555T725 325Q725 191 630 96T400 0T170 95T75 325ZM130 273Q131 272 131 271Q132 265 137 262Q141 258 145 258L290 220Q298 218 305 222T314 234T312 249T300
258L200 284Q260 315 328 328T447 340T547 329T617 313T643 303Q661 296 668 313Q677 331 658 339Q644 344 627 350T555 367T450 379T327 368T192 323L228 406Q231 413 228 420T218 431Q205 438 195 426Q194 425 192 421L132 284Q130 281 130 273Z" />
<glyph unicode="|" glyph-name="bar" horiz-adv-x="800" d="M75 325Q75 460 170 555T400 650T630 555T725 325Q725 191 630 96T400 0T170 95T75 325ZM133 379Q133 352 148 339Q158 330 174 330H244V292Q246 267 273 258V222Q275 201 298 192V159Q294 148 307 136Q319
123 344 123Q464 119 482 123Q498 126 560 149T622 177V410Q616 410 591 410T559 411Q550 411 459 470T355 529Q340 529 326 518T312 481Q312 461 343 430H174Q158 430 147 419Q133 405 133 379ZM163 365T163 378T168 398L175 401H394Q398 401 398 415T394 429L387
430Q336 463 336 480Q336 494 345 499T374 493Q539 378 558 378H595V195Q488 153 477 150H333Q331 150 330 154T328 163T327 173T327 183V187H406Q410 187 410 201T406 215H309Q303 215 302 224T302 244L303 254H375Q378 254 378 268T375 282L283 281Q275 281 273
293T272 317L274 329H375Q378 329 379 343T375 357H174Q171 357 168 360Q163 365 163 378Z" />
<glyph unicode="}" glyph-name="braceright" horiz-adv-x="800" d="M75 325Q75 460 170 555T400 650T630 555T725 325Q725 191 630 96T400 0T170 95T75 325ZM167 325L367 161V325L566 161V490L367 325V490L167 325Z" />
<glyph unicode="~" glyph-name="asciitilde" horiz-adv-x="800" d="M75 325Q75 460 170 555T400 650T630 555T725 325Q725 191 630 96T400 0T170 95T75 325ZM215 325L555 167L472 325L555 483L215 325Z" />
</font>
</defs>
</svg>
